<svg width="28" height="28" viewBox="0 0 28 28" fill="none" xmlns="http://www.w3.org/2000/svg">
<path d="M14.4922 16.9531H2.46094C1.10398 16.9531 0 15.8491 0 14.4922V2.46094C0 1.10398 1.10398 0 2.46094 0H14.4922C15.8491 0 16.9531 1.10398 16.9531 2.46094V14.4922C16.9531 15.8491 15.8491 16.9531 14.4922 16.9531Z" fill="#363636"/>
<path d="M14.4922 0H8.47656V16.9531H14.4922C15.8491 16.9531 16.9531 15.8491 16.9531 14.4922V2.46094C16.9531 1.10398 15.8491 0 14.4922 0Z" fill="#363636"/>
<path d="M12.6985 12.5619L9.44275 3.93477C9.4399 3.92727 9.43701 3.91984 9.43394 3.9124C9.27617 3.52888 8.90648 3.28125 8.49184 3.28125C8.49151 3.28125 8.49119 3.28125 8.4908 3.28125C8.07578 3.28163 7.70609 3.53013 7.54897 3.91426C7.54646 3.92044 7.544 3.92662 7.54165 3.9328L4.25608 12.5596C4.09486 12.983 4.30732 13.4569 4.73071 13.6181C5.15421 13.7794 5.62802 13.5668 5.78924 13.1435L6.40633 11.5233H10.553L11.1635 13.1411C11.2876 13.4696 11.5997 13.672 11.9312 13.672C12.0274 13.672 12.1253 13.655 12.2207 13.619C12.6445 13.4591 12.8585 12.9858 12.6985 12.5619ZM7.03119 9.88274L8.48922 6.05462L9.9339 9.88274H7.03119Z" fill="#8F8F8F"/>
<path d="M9.44251 3.93477C9.43966 3.92727 9.43677 3.91984 9.4337 3.9124C9.27593 3.52888 8.90624 3.28125 8.4916 3.28125C8.49127 3.28125 8.49095 3.28125 8.49056 3.28125C8.48586 3.28125 8.48127 3.28174 8.47656 3.2818V6.08705L8.48892 6.05467L9.9336 9.8828H8.47662V11.5234H10.5528L11.1633 13.1412C11.2873 13.4697 11.5994 13.6721 11.931 13.6721C12.0271 13.6721 12.1251 13.6551 12.2204 13.6191C12.6443 13.4591 12.8582 12.9859 12.6983 12.562L9.44251 3.93477Z" fill="#969696"/>
<path d="M25.5391 28H13.5078C12.1509 28 11.0469 26.896 11.0469 25.5391V13.5078C11.0469 12.1509 12.1509 11.0469 13.5078 11.0469H25.5391C26.896 11.0469 28 12.1509 28 13.5078V25.5391C28 26.896 26.896 28 25.5391 28Z" fill="#5E5E5E"/>
<path d="M25.5391 11.0469H19.5234V28H25.5391C26.896 28 28 26.896 28 25.5391V13.5078C28 12.1509 26.896 11.0469 25.5391 11.0469Z" fill="#8F8F8F"/>
<path d="M23.4137 22.9504C23.1189 22.6064 22.601 22.5666 22.2571 22.8615C21.6826 23.3539 20.9108 23.625 20.084 23.625C18.4255 23.625 17.0762 22.521 17.0762 21.1641C17.0762 19.8071 18.4255 18.7031 20.084 18.7031C20.8446 18.7031 21.5687 18.4742 22.123 18.0585C22.4854 17.7867 22.5589 17.2725 22.287 16.9101C22.0151 16.5477 21.501 16.4742 21.1386 16.746C20.8704 16.9471 20.486 17.0625 20.084 17.0625C19.3015 17.0625 18.7168 16.6294 18.7168 16.2422C18.7168 15.8549 19.3015 15.4219 20.084 15.4219C20.537 15.4219 20.9043 15.0546 20.9043 14.6016C20.9043 14.1485 20.537 13.7812 20.084 13.7812C19.3234 13.7812 18.5993 14.0102 18.045 14.4259C17.4293 14.8876 17.0762 15.5497 17.0762 16.2422C17.0762 16.7625 17.2756 17.2656 17.6359 17.6795C16.3163 18.404 15.4355 19.6947 15.4355 21.1641C15.4355 23.4257 17.5208 25.2656 20.084 25.2656C21.3021 25.2656 22.4531 24.8542 23.3248 24.1071C23.6687 23.8123 23.7086 23.2944 23.4137 22.9504Z" fill="#363636"/>
<path d="M22.123 18.0586C22.4854 17.7868 22.5589 17.2726 22.2871 16.9102C22.0152 16.5478 21.5011 16.4743 21.1386 16.7461C20.8705 16.9472 20.4861 17.0626 20.084 17.0626C19.8816 17.0626 19.6927 17.0334 19.5234 16.9838V18.7468C19.7052 18.7186 19.8924 18.7032 20.084 18.7032C20.8447 18.7032 21.5688 18.4743 22.123 18.0586Z" fill="#363636"/>
<path d="M22.2571 22.8616C21.6826 23.354 20.9109 23.6252 20.084 23.6252C19.8924 23.6252 19.7052 23.6098 19.5234 23.5816V25.2349C19.7074 25.2545 19.8942 25.2658 20.084 25.2658C21.3022 25.2658 22.4532 24.8544 23.3248 24.1072C23.6688 23.8124 23.7087 23.2945 23.4138 22.9505C23.1189 22.6065 22.601 22.5667 22.2571 22.8616Z" fill="#363636"/>
<path d="M20.9044 14.6016C20.9044 14.1485 20.5371 13.7812 20.084 13.7812C19.8942 13.7812 19.7066 13.7955 19.5234 13.8234V15.5007C19.6926 15.4511 19.8816 15.4219 20.084 15.4219C20.5371 15.4219 20.9044 15.0546 20.9044 14.6016Z" fill="#363636"/>
</svg>
