<svg width="71" height="21" viewBox="0 0 71 21" fill="none" xmlns="http://www.w3.org/2000/svg">
    <path
        d="M71 0.48764C67.2482 6.78959 62.0059 11.9845 55.7741 15.5758C49.5424 19.167 42.5296 21.0344 35.4064 20.9995C28.2832 20.9646 21.2876 19.0285 15.0887 15.3764C8.8897 11.7242 3.69457 6.4781 0 0.139648C15.9145 0.396648 62.6377 0.54664 71 0.48764Z"
        fill="#B0B8BF" />
    <path
        d="M40.9884 6.03039H39.5741L38.7929 4.80339C38.6434 4.57576 38.4427 4.38968 38.2082 4.26138C37.9737 4.13309 37.7126 4.06649 37.4477 4.06739H34.2106C33.9457 4.06649 33.6846 4.13309 33.4501 4.26138C33.2156 4.38968 33.0149 4.57576 32.8654 4.80339L32.0842 6.03039H30.6747C30.4616 6.02973 30.2506 6.07291 30.0536 6.15746C29.8567 6.24201 29.6777 6.36625 29.5271 6.52303C29.3764 6.67981 29.2571 6.86605 29.1758 7.07102C29.0946 7.276 29.0531 7.49567 29.0537 7.71739V13.6634C29.0527 13.8854 29.0939 14.1054 29.175 14.3107C29.2561 14.516 29.3754 14.7026 29.5261 14.8597C29.6767 15.0168 29.8558 15.1413 30.053 15.226C30.2501 15.3108 30.4614 15.3541 30.6747 15.3534H40.9884C41.2017 15.3541 41.413 15.3108 41.6102 15.226C41.8073 15.1413 41.9864 15.0168 42.1371 14.8597C42.2877 14.7026 42.4071 14.516 42.4881 14.3107C42.5692 14.1054 42.6104 13.8854 42.6094 13.6634V7.71339C42.6095 7.492 42.5676 7.27277 42.4862 7.06825C42.4047 6.86374 42.2853 6.67798 42.1347 6.52162C41.9841 6.36526 41.8053 6.24138 41.6086 6.15708C41.4119 6.07279 41.2012 6.02973 40.9884 6.03039ZM35.8316 13.9734C35.1089 13.9734 34.4025 13.7502 33.8019 13.3321C33.2012 12.9141 32.7332 12.3199 32.4572 11.6248C32.1812 10.9297 32.1095 10.1651 32.2514 9.42763C32.3932 8.69017 32.7421 8.0131 33.2539 7.48214C33.7656 6.95118 34.4173 6.59022 35.1263 6.44495C35.8354 6.29969 36.5699 6.37665 37.2368 6.6661C37.9038 6.95556 38.4732 7.44448 38.8731 8.07097C39.2729 8.69745 39.4851 9.43332 39.4828 10.1854C39.4797 11.1911 39.0937 12.1546 38.4093 12.8646C37.7249 13.5747 36.7979 13.9734 35.8316 13.9734ZM40.7828 8.40639H40.1342C40.0068 8.40639 39.8846 8.35371 39.7945 8.25995C39.7044 8.16618 39.6538 8.039 39.6538 7.90639C39.6538 7.77378 39.7044 7.64661 39.7945 7.55284C39.8846 7.45907 40.0068 7.40639 40.1342 7.40639H40.7232C40.85 7.40069 40.9739 7.44744 41.0677 7.53644C41.1615 7.62544 41.2176 7.74945 41.2238 7.88139C41.2291 7.94628 41.2217 8.0116 41.2022 8.07348C41.1827 8.13536 41.1515 8.19253 41.1104 8.24159C41.0692 8.29065 41.019 8.33062 40.9628 8.3591C40.9065 8.38758 40.8453 8.403 40.7828 8.40639Z"
        fill="white" />
    <path
        d="M35.8322 8.06934C35.4313 8.07072 35.0398 8.19582 34.7073 8.4288C34.3748 8.66178 34.1161 8.99219 33.964 9.3782C33.8119 9.76422 33.7733 10.1885 33.8529 10.5974C33.9326 11.0063 34.1269 11.3814 34.4115 11.6753C34.696 11.9691 35.0579 12.1686 35.4514 12.2484C35.8448 12.3282 36.2522 12.2847 36.6219 12.1235C36.9917 11.9623 37.3072 11.6906 37.5285 11.3427C37.7498 10.9949 37.867 10.5865 37.8653 10.1693C37.8603 9.61125 37.644 9.07775 37.2633 8.6846C36.8827 8.29145 36.3684 8.07036 35.8322 8.06934Z"
        fill="white" />
</svg>