<svg width="28" height="28" viewBox="0 0 28 28" fill="none" xmlns="http://www.w3.org/2000/svg">
<path d="M24.4413 4.81801C24.103 4.32801 23.6713 3.89634 23.1813 3.55801C22.073 2.75301 20.6263 2.33301 18.888 2.33301H9.11134C8.87801 2.33301 8.64467 2.34467 8.42301 2.36801C4.59634 2.61301 2.33301 5.09801 2.33301 9.11134V18.888C2.33301 20.6263 2.75301 22.073 3.55801 23.1813C3.89634 23.6713 4.32801 24.103 4.81801 24.4413C5.77467 25.1413 6.98801 25.5497 8.42301 25.643C8.64467 25.6547 8.87801 25.6663 9.11134 25.6663H18.888C23.1347 25.6663 25.6663 23.1347 25.6663 18.888V9.11134C25.6663 7.37301 25.2463 5.92634 24.4413 4.81801ZM13.288 18.5263H9.93968C9.46134 18.5263 9.06467 18.1297 9.06467 17.6513C9.06467 17.173 9.46134 16.7763 9.93968 16.7763H11.1063V9.22801H8.10801C7.97967 9.22801 7.87467 9.33301 7.87467 9.46134V10.3713C7.87467 10.8497 7.47801 11.2347 6.99967 11.2347C6.52134 11.2347 6.12467 10.8497 6.12467 10.3597V9.44968C6.12467 8.35301 7.01134 7.46634 8.10801 7.46634H15.8547C16.9513 7.46634 17.838 8.35301 17.838 9.44968V10.3597C17.838 10.838 17.4413 11.2347 16.963 11.2347C16.4847 11.2347 16.088 10.838 16.088 10.3597V9.44968C16.088 9.32134 15.983 9.21634 15.8547 9.21634H12.8563V16.7763H13.288C13.7663 16.7763 14.163 17.173 14.163 17.6513C14.163 18.1297 13.7663 18.5263 13.288 18.5263ZM21.8747 14.268C21.8747 14.7463 21.478 15.143 20.9997 15.143C20.5213 15.143 20.1247 14.7463 20.1247 14.268V13.883H18.3163V18.783H18.7247C19.203 18.783 19.5997 19.1797 19.5997 19.658C19.5997 20.1363 19.203 20.533 18.7247 20.533H16.158C15.6797 20.533 15.283 20.1363 15.283 19.658C15.283 19.1797 15.6797 18.783 16.158 18.783H16.5663V13.883H16.0063C15.528 13.883 15.1313 13.4863 15.1313 13.008C15.1313 12.5297 15.528 12.133 16.0063 12.133H20.2063C21.128 12.133 21.8747 12.8797 21.8747 13.8013V14.268Z" fill="#5B20B6"/>
</svg>
