<svg width="20" height="20" viewBox="0 0 20 20" fill="none" xmlns="http://www.w3.org/2000/svg">
    <path
        d="M16.3389 7.04004C16.1389 6.86671 15.9365 6.70004 15.7319 6.54004L13.3629 8.90903C13.6073 9.59425 13.6522 10.3348 13.4925 11.0445C13.3327 11.7543 12.9748 12.4041 12.4604 12.9186C11.946 13.433 11.2961 13.7909 10.5864 13.9506C9.87661 14.1104 9.13608 14.0654 8.45085 13.821L6.67285 15.599C7.64409 16.0115 8.68673 16.2296 9.74185 16.241C11.0205 16.2207 12.2776 15.9081 13.4169 15.327C14.4705 14.7991 15.4525 14.1387 16.3389 13.362C17.329 12.5138 18.2249 11.5613 19.0109 10.521C19.078 10.4277 19.1141 10.3155 19.1141 10.2005C19.1141 10.0855 19.078 9.97341 19.0109 9.88004C18.2249 8.83975 17.329 7.88724 16.3389 7.03903V7.04004Z"
        fill="#B0B8BF" />
    <path
        d="M9.74249 12.9489C10.136 12.9494 10.525 12.8651 10.8831 12.7019C11.2412 12.5387 11.5599 12.3004 11.8177 12.0031C12.0756 11.7058 12.2664 11.3566 12.3773 10.979C12.4882 10.6014 12.5166 10.2044 12.4605 9.81494L9.35449 12.9209C9.483 12.9394 9.61266 12.9488 9.74249 12.9489Z"
        fill="#B0B8BF" />
    <path
        d="M18.9534 0.992152C18.9024 0.941083 18.8419 0.900568 18.7752 0.872926C18.7086 0.845283 18.6371 0.831055 18.5649 0.831055C18.4928 0.831055 18.4213 0.845283 18.3546 0.872926C18.288 0.900568 18.2274 0.941083 18.1764 0.992152L13.8624 5.30615C13.7138 5.22548 13.5654 5.14882 13.4174 5.07615C12.2782 4.49513 11.0211 4.18248 9.74243 4.16215C8.4651 4.18309 7.20945 4.49572 6.07143 5.07615C5.01636 5.60382 4.03306 6.26417 3.14543 7.04115C2.15456 7.88927 1.25804 8.84178 0.471428 9.88215C0.404285 9.97553 0.368164 10.0876 0.368164 10.2027C0.368164 10.3177 0.404285 10.4298 0.471428 10.5232C1.25739 11.5634 2.15323 12.5159 3.14343 13.3642C3.62246 13.7777 4.1264 14.1614 4.65243 14.5132L0.531428 18.6372C0.428391 18.7402 0.370506 18.8799 0.370506 19.0257C0.370506 19.1714 0.428391 19.3111 0.531428 19.4142C0.634464 19.5172 0.774212 19.5751 0.919928 19.5751C1.06564 19.5751 1.20539 19.5172 1.30843 19.4142L18.9534 1.76915C19.0045 1.71816 19.045 1.6576 19.0727 1.59094C19.1003 1.52428 19.1145 1.45282 19.1145 1.38065C19.1145 1.30848 19.1003 1.23703 19.0727 1.17036C19.045 1.1037 19.0045 1.04314 18.9534 0.992152ZM5.89843 10.2032C5.89885 9.49007 6.09771 8.79118 6.47275 8.18469C6.8478 7.57821 7.38423 7.08806 8.02201 6.76912C8.65979 6.45018 9.37374 6.31503 10.084 6.37879C10.7942 6.44255 11.4727 6.70271 12.0434 7.13015L11.2554 7.91815C10.7279 7.57162 10.0971 7.41752 9.4692 7.48184C8.84133 7.54616 8.25483 7.82496 7.80853 8.27126C7.36224 8.71755 7.08344 9.30405 7.01912 9.93192C6.9548 10.5598 7.10889 11.1906 7.45543 11.7182L6.66743 12.5062C6.16772 11.8424 5.89777 11.034 5.89843 10.2032Z"
        fill="#B0B8BF" />
</svg>