<svg width="25" height="29" viewBox="0 0 25 29" fill="none" xmlns="http://www.w3.org/2000/svg">
<path d="M6.72445 3.32117C4.94279 4.20397 3.59395 5.77759 2.97378 7.69686C2.35361 9.61614 2.51276 11.7244 3.4163 13.5592L7.2122 21.2442C7.31287 21.4481 7.48814 21.6047 7.69945 21.6796C7.91075 21.7545 8.14079 21.7416 8.33895 21.6437C8.53711 21.5458 8.68716 21.371 8.75609 21.1577C8.82503 20.9443 8.80719 20.71 8.70652 20.5062L4.91063 12.8211C4.20591 11.3943 4.08109 9.75384 4.56363 8.26051C5.04616 6.76718 6.09651 5.54333 7.48363 4.85819C8.87075 4.17305 10.481 4.08275 11.9601 4.60715C13.4393 5.13154 14.6662 6.22769 15.3709 7.65443L20.1158 17.2608C20.5688 18.178 20.649 19.2326 20.3388 20.1926C20.0286 21.1526 19.3534 21.9393 18.4617 22.3798C17.57 22.8202 16.5348 22.8783 15.5839 22.5412C14.633 22.2041 13.8443 21.4994 13.3913 20.5822L9.02602 11.7443C8.82468 11.3367 8.78901 10.868 8.92688 10.4413C9.06475 10.0147 9.36485 9.665 9.76117 9.46924C10.1575 9.27349 10.6176 9.24769 11.0402 9.39752C11.4628 9.54734 11.8133 9.86053 12.0147 10.2682L16.1902 18.7218C16.2908 18.9256 16.4661 19.0822 16.6774 19.1571C16.8887 19.232 17.1187 19.2191 17.3169 19.1212C17.5151 19.0234 17.6651 18.8485 17.734 18.6352C17.803 18.4219 17.7851 18.1875 17.6845 17.9837L13.509 9.53008C13.1063 8.71479 12.4052 8.08843 11.56 7.78877C10.7148 7.48912 9.79463 7.54072 9.00199 7.93222C8.20935 8.32373 7.60915 9.02307 7.33341 9.87641C7.05768 10.7297 7.12901 11.6672 7.5317 12.4824L11.897 21.3203C12.5514 22.6451 13.6906 23.663 15.0641 24.1499C16.4376 24.6369 17.9328 24.553 19.2209 23.9168C20.5089 23.2806 21.4842 22.1442 21.9323 20.7575C22.3804 19.3708 22.2645 17.8475 21.6101 16.5227L16.8652 6.91634C15.9573 5.08371 14.3798 3.67603 12.4788 3.00206C10.5777 2.32808 8.50832 2.44285 6.72445 3.32117Z" fill="#A0A0A5"/>
</svg>
