<svg width="18" height="18" viewBox="0 0 18 18" fill="none" xmlns="http://www.w3.org/2000/svg">
<circle cx="9" cy="9" r="9" fill="#EDE7F6"/>
<path d="M13.3104 7.35C12.7904 5.035 10.7704 4 9.00036 4C9.00036 4 9.00036 4 8.99536 4C7.23036 4 5.21536 5.035 4.69036 7.345C4.10036 9.925 5.68036 12.11 7.11036 13.49C7.64036 14 8.32036 14.255 9.00036 14.255C9.68036 14.255 10.3604 14 10.8854 13.49C12.3154 12.11 13.8954 9.93 13.3104 7.35ZM10.6404 7.765L8.64036 9.765C8.56536 9.84 8.47036 9.875 8.37536 9.875C8.28036 9.875 8.18536 9.84 8.11036 9.765L7.36036 9.015C7.21536 8.87 7.21536 8.63 7.36036 8.485C7.50536 8.34 7.74536 8.34 7.89036 8.485L8.37536 8.97L10.1104 7.235C10.2554 7.09 10.4954 7.09 10.6404 7.235C10.7854 7.38 10.7854 7.62 10.6404 7.765Z" fill="#5B20B6"/>
</svg>
