<svg width="18" height="18" viewBox="0 0 18 18" fill="none" xmlns="http://www.w3.org/2000/svg">
    <g clip-path="url(#clip0_191_4546)">
        <path
            d="M9 0.5625C7.33122 0.5625 5.69992 1.05735 4.31238 1.98448C2.92484 2.9116 1.84338 4.22936 1.20477 5.77111C0.566156 7.31286 0.399065 9.00936 0.724628 10.6461C1.05019 12.2828 1.85378 13.7862 3.03379 14.9662C4.2138 16.1462 5.71721 16.9498 7.35393 17.2754C8.99064 17.6009 10.6871 17.4338 12.2289 16.7952C13.7706 16.1566 15.0884 15.0752 16.0155 13.6876C16.9427 12.3001 17.4375 10.6688 17.4375 9C17.4348 6.76306 16.545 4.6185 14.9633 3.03675C13.3815 1.45499 11.2369 0.56518 9 0.5625ZM8.4375 4.5C8.4375 4.35082 8.49677 4.20774 8.60226 4.10225C8.70775 3.99676 8.85082 3.9375 9 3.9375C9.14919 3.9375 9.29226 3.99676 9.39775 4.10225C9.50324 4.20774 9.5625 4.35082 9.5625 4.5V8.4375C9.5625 8.58668 9.50324 8.72976 9.39775 8.83525C9.29226 8.94074 9.14919 9 9 9C8.85082 9 8.70775 8.94074 8.60226 8.83525C8.49677 8.72976 8.4375 8.58668 8.4375 8.4375V4.5ZM9 14.0625C7.65798 14.0604 6.37153 13.5264 5.42258 12.5774C4.47362 11.6285 3.93959 10.342 3.9375 9C3.93504 8.24086 4.10487 7.49106 4.4342 6.80707C4.76353 6.12308 5.24377 5.52273 5.83875 5.05125C5.8954 4.99778 5.96253 4.95666 6.03589 4.9305C6.10926 4.90433 6.18725 4.89368 6.26495 4.89923C6.34264 4.90478 6.41834 4.92641 6.48724 4.96274C6.55613 4.99907 6.61674 5.04931 6.66521 5.11029C6.71367 5.17126 6.74895 5.24164 6.7688 5.31696C6.78865 5.39228 6.79264 5.4709 6.78051 5.54784C6.76839 5.62479 6.74042 5.69837 6.69837 5.76394C6.65633 5.82951 6.60112 5.88563 6.53625 5.92875C5.90014 6.439 5.43815 7.13417 5.21407 7.91825C4.98999 8.70233 5.01489 9.53665 5.28532 10.306C5.55575 11.0753 6.05837 11.7417 6.72377 12.2131C7.38918 12.6845 8.18453 12.9377 9 12.9377C9.81548 12.9377 10.6108 12.6845 11.2762 12.2131C11.9416 11.7417 12.4443 11.0753 12.7147 10.306C12.9851 9.53665 13.01 8.70233 12.7859 7.91825C12.5619 7.13417 12.0999 6.439 11.4638 5.92875C11.3613 5.83202 11.2988 5.70034 11.2888 5.55978C11.2788 5.41922 11.3218 5.28 11.4095 5.16969C11.4972 5.05937 11.6231 4.98599 11.7623 4.96405C11.9015 4.94212 12.0439 4.97324 12.1613 5.05125C12.7562 5.52273 13.2365 6.12308 13.5658 6.80707C13.8951 7.49106 14.065 8.24086 14.0625 9C14.0604 10.342 13.5264 11.6285 12.5774 12.5774C11.6285 13.5264 10.342 14.0604 9 14.0625Z"
            fill="#DF0404" />
    </g>
    <defs>
        <clipPath id="clip0_191_4546">
            <rect width="18" height="18" fill="white" />
        </clipPath>
    </defs>
</svg>