<svg width="18" height="20" viewBox="0 0 18 20" fill="none" xmlns="http://www.w3.org/2000/svg">
    <path
        d="M10.4417 17.4998C10.2952 17.7524 10.0849 17.962 9.83185 18.1078C9.57884 18.2535 9.29198 18.3302 9 18.3302C8.70802 18.3302 8.42116 18.2535 8.16814 18.1078C7.91513 17.962 7.70484 17.7524 7.55833 17.4998M14 6.6665C14 5.34042 13.4732 4.06865 12.5355 3.13097C11.5979 2.19329 10.3261 1.6665 9 1.6665C7.67392 1.6665 6.40215 2.19329 5.46447 3.13097C4.52678 4.06865 4 5.34042 4 6.6665C4 12.4998 1.5 14.1665 1.5 14.1665H16.5C16.5 14.1665 14 12.4998 14 6.6665Z"
        stroke="#1E1E1E" stroke-width="1.41667" stroke-linecap="round" stroke-linejoin="round" />
</svg>