<svg width="18" height="18" viewBox="0 0 18 18" fill="none" xmlns="http://www.w3.org/2000/svg">
    <g clip-path="url(#clip0_191_4523)">
        <path
            d="M10.6875 0H2.0625C0.9225 0 0 0.9225 0 2.0625V13.6875C0 14.8275 0.9225 15.75 2.0625 15.75H8.175C7.545 14.7525 7.125 13.575 7.125 12.225V10.395C7.0125 10.4625 6.885 10.5 6.75 10.5H3C2.5875 10.5 2.25 10.1625 2.25 9.75C2.25 9.3375 2.5875 9 3 9H6.75C6.8925 9 7.02 9.0375 7.1325 9.105C7.1625 8.4675 7.4625 7.8825 7.935 7.5H3C2.5875 7.5 2.25 7.1625 2.25 6.75C2.25 6.3375 2.5875 6 3 6H9.75C10.065 6 10.335 6.195 10.4475 6.4725L12.585 5.745C12.6375 5.7225 12.69 5.7075 12.75 5.7V2.0625C12.75 0.9225 11.8275 0 10.6875 0ZM6 4.5H3C2.5875 4.5 2.25 4.1625 2.25 3.75C2.25 3.3375 2.5875 3 3 3H6C6.4125 3 6.75 3.3375 6.75 3.75C6.75 4.1625 6.4125 4.5 6 4.5Z"
            fill="black" />
        <path
            d="M17.4913 8.50419L13.5538 7.16469C13.397 7.11144 13.2268 7.11144 13.07 7.16469L9.13252 8.50419C8.82877 8.60769 8.62402 8.89344 8.62402 9.21444V12.2279C8.62402 16.0282 12.8383 17.8642 13.0175 17.9407C13.112 17.9804 13.2125 17.9999 13.3123 17.9999C13.412 17.9999 13.5125 17.9804 13.6063 17.9399C13.7855 17.8634 17.9998 16.0282 17.9998 12.2279V9.21444C17.9998 8.89269 17.7958 8.60769 17.4913 8.50419ZM15.9748 11.3249L13.7248 14.3249C13.5943 14.4989 13.3955 14.6077 13.178 14.6227C13.16 14.6242 13.142 14.6249 13.1248 14.6249C12.926 14.6249 12.7355 14.5469 12.5945 14.4052L11.0945 12.9052C10.8013 12.6119 10.8013 12.1379 11.0945 11.8447C11.3878 11.5514 11.8618 11.5514 12.155 11.8447L13.0438 12.7334L14.7748 10.4249C15.023 10.0942 15.4933 10.0259 15.824 10.2749C16.1563 10.5232 16.2238 10.9934 15.9748 11.3249Z"
            fill="black" />
    </g>
    <defs>
        <clipPath id="clip0_191_4523">
            <rect width="18" height="18" fill="white" />
        </clipPath>
    </defs>
</svg>