<svg width="34" height="34" viewBox="0 0 34 34" fill="none" xmlns="http://www.w3.org/2000/svg">
<path d="M16.88 0C11.3748 0 6.896 3.93647 6.896 8.775C6.896 13.6135 11.3748 17.55 16.88 17.55C22.3852 17.55 26.864 13.6135 26.864 8.775C26.864 3.93647 22.3852 0 16.88 0ZM16.88 15.6C12.5982 15.6 9.11466 12.5383 9.11466 8.775C9.11466 5.0117 12.5982 1.95 16.88 1.95C21.1618 1.95 24.6453 5.0117 24.6453 8.775C24.6453 12.5383 21.1618 15.6 16.88 15.6Z" fill="#A0A0A5"/>
<path d="M29.302 23.2827C26.5686 20.8434 22.945 19.5 19.0987 19.5H14.6613C10.815 19.5 7.19137 20.8434 4.45797 23.2827C1.73796 25.71 0.23999 28.9141 0.23999 32.305C0.23999 32.8435 0.736676 33.28 1.34932 33.28H32.4107C33.0233 33.28 33.52 32.8435 33.52 32.305C33.52 28.9141 32.022 25.71 29.302 23.2827ZM2.50747 31.33C3.06324 25.7994 8.30196 21.45 14.6613 21.45H19.0987C25.458 21.45 30.6967 25.7994 31.2525 31.33H2.50747Z" fill="#A0A0A5"/>
</svg>
