<svg width="18" height="18" viewBox="0 0 18 18" fill="none" xmlns="http://www.w3.org/2000/svg">
    <path
        d="M8.57855 9.20564C11.1207 9.20564 13.1815 7.14489 13.1815 4.60282C13.1815 2.06075 11.1207 0 8.57855 0C6.0364 0 3.97559 2.06075 3.97559 4.60282C3.97559 7.14489 6.0364 9.20564 8.57855 9.20564Z"
        fill="#1E212D" />
    <path fill-rule="evenodd" clip-rule="evenodd"
        d="M9.77182 17.1687C8.86007 16.1896 8.35846 14.8982 8.3703 13.5604C8.38214 12.2226 8.90652 10.9403 9.83545 9.97747C9.4257 9.94588 9.00692 9.92963 8.57911 9.92873C6.20323 9.84988 3.85441 10.4526 1.81005 11.6656C1.29525 11.9569 0.860554 12.371 0.544723 12.871C0.228892 13.3711 0.0417533 13.9416 0 14.5316V15.7499C0.00107432 16.1264 0.151271 16.487 0.417699 16.7529C0.684128 17.0188 1.04508 17.1683 1.4215 17.1687H9.77182Z"
        fill="#1E212D" />
    <path fill-rule="evenodd" clip-rule="evenodd"
        d="M13.6069 9.21143C12.7378 9.21036 11.8878 9.46704 11.1646 9.949C10.4413 10.431 9.87721 11.1166 9.54362 11.9191C9.21002 12.7217 9.12191 13.6051 9.29042 14.4577C9.45893 15.3104 9.8765 16.0939 10.4903 16.7092C11.1041 17.3245 11.8866 17.744 12.7389 17.9146C13.5911 18.0852 14.4748 17.9993 15.2782 17.6677C16.0816 17.3361 16.7686 16.7737 17.2524 16.0516C17.7361 15.3296 17.9949 14.4803 17.996 13.6112C17.9971 12.4458 17.5353 11.3278 16.7123 10.5027C15.8893 9.67769 14.7723 9.21322 13.6069 9.21143ZM11.5762 14.3368L12.8312 15.1734C12.9519 15.2541 13.0968 15.2903 13.2412 15.276C13.3857 15.2617 13.5207 15.1977 13.6232 15.0949L15.7162 13.002C15.7787 12.9446 15.8289 12.8751 15.8637 12.7977C15.8985 12.7203 15.9173 12.6366 15.9188 12.5518C15.9203 12.4669 15.9046 12.3826 15.8726 12.304C15.8406 12.2254 15.793 12.1541 15.7326 12.0945C15.6722 12.0349 15.6004 11.9881 15.5214 11.9571C15.4424 11.926 15.3579 11.9113 15.2731 11.9139C15.1882 11.9165 15.1048 11.9363 15.0279 11.972C14.9509 12.0078 14.882 12.0588 14.8254 12.122L13.0965 13.8508L12.2694 13.2998C12.1308 13.2142 11.9644 13.1858 11.8052 13.2206C11.6461 13.2553 11.5067 13.3506 11.4164 13.4861C11.3261 13.6217 11.2921 13.7871 11.3214 13.9473C11.3507 14.1075 11.4411 14.2501 11.5735 14.3449L11.5762 14.3368Z"
        fill="#1E212D" />
</svg>