<svg width="12" height="11" viewBox="0 0 12 11" fill="none" xmlns="http://www.w3.org/2000/svg">
<path d="M10.6191 1.28906H8.81375V0.966797C8.81375 0.433705 8.32782 0 7.73054 0H4.842C4.24471 0 3.75879 0.433705 3.75879 0.966797V1.28906H1.95345C1.35617 1.28906 0.870239 1.72277 0.870239 2.25586C0.870239 2.684 1.18377 3.0478 1.61657 3.17455L2.26059 10.1135C2.30698 10.6106 2.78114 11 3.34005 11H9.23249C9.79143 11 10.2656 10.6106 10.312 10.1133L10.956 3.17453C11.3888 3.04779 11.7023 2.684 11.7023 2.25586C11.7023 1.72277 11.2164 1.28906 10.6191 1.28906ZM4.48093 0.966797C4.48093 0.7891 4.6429 0.644531 4.842 0.644531H7.73054C7.92964 0.644531 8.09161 0.7891 8.09161 0.966797V1.28906H4.48093V0.966797ZM9.59231 10.06C9.57683 10.2257 9.41881 10.3555 9.23249 10.3555H3.34005C3.15376 10.3555 2.99571 10.2257 2.98028 10.0601L2.34566 3.22266H10.2269L9.59231 10.06ZM10.6191 2.57812H1.95345C1.75435 2.57812 1.59238 2.43356 1.59238 2.25586C1.59238 2.07816 1.75435 1.93359 1.95345 1.93359H10.6191C10.8182 1.93359 10.9802 2.07816 10.9802 2.25586C10.9802 2.43356 10.8182 2.57812 10.6191 2.57812Z" fill="white"/>
<path d="M4.84133 9.36874L4.48026 4.16953C4.46791 3.99187 4.29563 3.85676 4.09755 3.86782C3.8985 3.87884 3.74717 4.03177 3.75949 4.2094L4.12056 9.40864C4.13243 9.57951 4.29139 9.71097 4.48059 9.71097C4.6897 9.71097 4.85416 9.55379 4.84133 9.36874Z" fill="white"/>
<path d="M6.28624 3.86719C6.08683 3.86719 5.92517 4.01148 5.92517 4.18945V9.38867C5.92517 9.56665 6.08683 9.71094 6.28624 9.71094C6.48565 9.71094 6.64731 9.56665 6.64731 9.38867V4.18945C6.64731 4.01148 6.48565 3.86719 6.28624 3.86719Z" fill="white"/>
<path d="M8.47495 3.86782C8.27636 3.8568 8.10456 3.99187 8.09224 4.16952L7.73117 9.36874C7.71887 9.54637 7.8702 9.6993 8.06922 9.71032C8.26837 9.72132 8.43961 9.58618 8.45193 9.40862L8.813 4.2094C8.82533 4.03174 8.67399 3.87882 8.47495 3.86782Z" fill="white"/>
</svg>
