<svg width="18" height="18" viewBox="0 0 18 18" fill="none" xmlns="http://www.w3.org/2000/svg">
    <g clip-path="url(#clip0_191_4466)">
        <path
            d="M13.048 12.1908V8.85901C13.048 8.2849 12.7133 7.78783 12.2292 7.55295V7.10154C12.2292 5.31809 10.7807 3.86719 9.00005 3.86719C7.21945 3.86719 5.77091 5.31809 5.77091 7.10154V7.55295C5.2868 7.78779 4.95215 8.2849 4.95215 8.85901V12.1908C4.95215 12.9902 5.60149 13.6406 6.39919 13.6406H11.6009C12.3986 13.6406 13.048 12.9902 13.048 12.1908ZM9.00005 4.92188C10.2001 4.92188 11.1762 5.89958 11.1762 7.10154V7.40912H6.82387V7.10154C6.82387 5.89958 7.79999 4.92188 9.00005 4.92188ZM8.47341 10.8896V10.1601C8.47341 9.86905 8.70931 9.6328 9.00005 9.6328C9.2908 9.6328 9.5267 9.86905 9.5267 10.1601V10.8896C9.5267 11.1811 9.2908 11.417 9.00005 11.417C8.70931 11.417 8.47341 11.1811 8.47341 10.8896Z"
            fill="black" />
        <path
            d="M7.77539 16.1168C6.11984 15.8332 4.60471 14.9673 3.5091 13.6786C2.40132 12.3756 1.79125 10.7141 1.79125 9.00004C1.79125 7.28602 2.40132 5.62446 3.5091 4.32149C4.34406 3.3394 5.42276 2.60326 6.62146 2.18286L6.43474 2.51484C6.29201 2.7686 6.38165 3.09018 6.63499 3.23312C6.88376 3.37477 7.2086 3.28856 7.35211 3.03252L8.14345 1.62567C8.28583 1.38639 8.19931 1.05177 7.95856 0.911992L6.57494 0.0759027C6.32593 -0.0745666 6.00235 0.0056251 5.85216 0.255025C5.70198 0.504424 5.78203 0.828531 6.03101 0.978965L6.33866 1.16487C4.9388 1.64275 3.6789 2.49505 2.70743 3.6377C1.43761 5.13129 0.738281 7.03567 0.738281 9.00004C0.738281 10.9644 1.43761 12.8688 2.70743 14.3624C3.96275 15.8389 5.69955 16.8312 7.59789 17.1563C7.87798 17.2064 8.1579 17.0141 8.2056 16.7254C8.25461 16.4384 8.06202 16.1659 7.77539 16.1168Z"
            fill="black" />
        <path
            d="M15.2924 3.63775C14.0371 2.16122 12.3003 1.16896 10.402 0.8438C10.1153 0.794757 9.84325 0.987625 9.79424 1.27468C9.74523 1.56176 9.93782 1.83426 10.2244 1.88337C11.8799 2.16698 13.3951 3.03285 14.4907 4.32154C15.5985 5.62451 16.2086 7.28607 16.2086 9.00008C16.2086 10.7141 15.5985 12.3757 14.4907 13.6786C13.6557 14.6607 12.577 15.3969 11.3784 15.8173L11.5651 15.4853C11.7078 15.2315 11.6182 14.9099 11.3648 14.767C11.1115 14.6241 10.7905 14.7138 10.6477 14.9676L9.8564 16.3745C9.71401 16.6139 9.80043 16.9483 10.0413 17.0881L11.4249 17.9242C11.6699 18.0734 11.9966 17.9966 12.1477 17.7451C12.2979 17.4957 12.2178 17.1716 11.9689 17.0212L11.6612 16.8352C13.0611 16.3574 14.321 15.5051 15.2925 14.3624C16.5623 12.8688 17.2616 10.9644 17.2616 9.00008C17.2616 7.03572 16.5622 5.13133 15.2924 3.63775Z"
            fill="black" />
    </g>
    <defs>
        <clipPath id="clip0_191_4466">
            <rect width="18" height="18" fill="white" />
        </clipPath>
    </defs>
</svg>