<svg width="109" height="109" viewBox="0 0 109 109" fill="none" xmlns="http://www.w3.org/2000/svg">
<path d="M54.5 9.08301C29.4754 9.08301 9.08334 29.4751 9.08334 54.4997C9.08334 79.5243 29.4754 99.9163 54.5 99.9163C79.5246 99.9163 99.9167 79.5243 99.9167 54.4997C99.9167 29.4751 79.5246 9.08301 54.5 9.08301ZM76.2092 44.0538L50.4579 69.8051C49.8221 70.4409 48.9592 70.8043 48.0508 70.8043C47.1425 70.8043 46.2796 70.4409 45.6438 69.8051L32.7908 56.9522C31.4738 55.6351 31.4738 53.4551 32.7908 52.138C34.1079 50.8209 36.2879 50.8209 37.605 52.138L48.0508 62.5838L71.395 39.2397C72.7121 37.9226 74.8921 37.9226 76.2092 39.2397C77.5263 40.5568 77.5263 42.6913 76.2092 44.0538Z" fill="#5B20B6"/>
</svg>
