<svg width="16" height="17" viewBox="0 0 16 17" fill="none" xmlns="http://www.w3.org/2000/svg">
    <path
        d="M15.9365 8.49996C15.9365 12.9201 12.369 16.5033 7.96824 16.5033C3.5675 16.5033 0 12.9201 0 8.49996C0 4.07982 3.5675 0.496582 7.96824 0.496582C12.369 0.496582 15.9365 4.07982 15.9365 8.49996ZM11.9826 5.46835C11.6908 5.17534 11.2178 5.17534 10.9261 5.46835C10.9191 5.47543 10.9124 5.48292 10.9063 5.4908L7.44771 9.91731L5.3625 7.8229C5.07077 7.52988 4.59778 7.52988 4.30605 7.8229C4.01432 8.11592 4.01432 8.59099 4.30605 8.88401L6.94199 11.5316C7.23372 11.8246 7.70671 11.8246 7.99844 11.5316C8.00494 11.5251 8.01107 11.5182 8.01681 11.511L11.9932 6.5186C12.2742 6.22482 12.2707 5.75778 11.9826 5.46835Z"
        fill="#E2A640" />
</svg>