<svg width="28" height="28" viewBox="0 0 28 28" fill="none" xmlns="http://www.w3.org/2000/svg">
    <path
        d="M14 2.33301C10.9434 2.33301 8.45837 4.81801 8.45837 7.87467C8.45837 10.873 10.8034 13.2997 13.86 13.4047C13.9534 13.393 14.0467 13.393 14.1167 13.4047C14.14 13.4047 14.1517 13.4047 14.175 13.4047C14.1867 13.4047 14.1867 13.4047 14.1984 13.4047C17.185 13.2997 19.53 10.873 19.5417 7.87467C19.5417 4.81801 17.0567 2.33301 14 2.33301Z"
        fill="#5B20B6" />
    <path
        d="M19.9266 16.5084C16.6716 14.3384 11.3633 14.3384 8.08495 16.5084C6.60329 17.5 5.78662 18.8417 5.78662 20.2767C5.78662 21.7117 6.60329 23.0417 8.07329 24.0217C9.70662 25.1184 11.8533 25.6667 14 25.6667C16.1466 25.6667 18.2933 25.1184 19.9266 24.0217C21.3966 23.03 22.2133 21.7 22.2133 20.2534C22.2016 18.8184 21.3966 17.4884 19.9266 16.5084Z"
        fill="#5B20B6" />
</svg>