<svg width="34" height="27" viewBox="0 0 34 27" fill="none" xmlns="http://www.w3.org/2000/svg">
    <path
        d="M32.8493 13.5H32.3316L27.8907 5.61375C28.1781 5.5845 28.4039 5.35388 28.4039 5.0625C28.4039 4.752 28.1485 4.5 27.8337 4.5H17.5698V4.42013C18.5517 4.16925 19.2804 3.29737 19.2804 2.25C19.2804 1.00688 18.2598 0 16.9996 0C15.7394 0 14.7187 1.00688 14.7187 2.25C14.7187 3.29737 15.4474 4.16925 16.4294 4.42013V4.5H6.16543C5.85067 4.5 5.59521 4.752 5.59521 5.0625C5.59521 5.35388 5.82102 5.5845 6.10841 5.61375L1.66755 13.5H1.1498C0.451849 13.5 -0.113807 14.1199 0.0196241 14.796C0.632038 17.9032 3.40558 20.25 6.73565 20.25C10.0657 20.25 12.8393 17.9032 13.4528 14.796C13.5851 14.1199 13.0206 13.5 12.3215 13.5H11.8037L7.36973 5.625H15.8021L14.7757 25.875H10.7272C10.4124 25.875 10.157 26.127 10.157 26.4375C10.157 26.748 10.4124 27 10.7272 27H23.272C23.5867 27 23.8422 26.748 23.8422 26.4375C23.8422 26.127 23.5867 25.875 23.272 25.875H19.2234L18.197 5.625H26.6294L22.1943 13.5H21.6765C20.9785 13.5 20.4129 14.1199 20.5463 14.796C21.1599 17.9032 23.9334 20.25 27.2635 20.25C30.5936 20.25 33.3671 17.9032 33.9807 14.796C34.1129 14.1199 33.5484 13.5 32.8493 13.5ZM12.3204 14.625C11.7832 17.235 9.44418 19.125 6.73565 19.125C4.01115 19.125 1.65729 17.2136 1.1498 14.625H12.3204ZM10.4991 13.5H2.97221L6.73565 6.81637L10.4991 13.5ZM15.8591 2.25C15.8591 1.63013 16.3712 1.125 16.9996 1.125C17.628 1.125 18.14 1.63013 18.14 2.25C18.14 2.86987 17.628 3.375 16.9996 3.375C16.3712 3.375 15.8591 2.86987 15.8591 2.25ZM15.9173 25.875L16.9437 5.625H17.0555L18.0818 25.875H15.9173ZM27.2635 6.81637L31.0269 13.5H23.5001L27.2635 6.81637ZM27.2635 19.125C24.539 19.125 22.1851 17.2136 21.6776 14.625H32.8482C32.3111 17.235 29.972 19.125 27.2635 19.125Z"
        fill="#0B1719" />
</svg>