<svg width="18" height="19" viewBox="0 0 18 19" fill="none" xmlns="http://www.w3.org/2000/svg">
    <path
        d="M15.3078 17.0941V17.8596C15.3078 18.0295 15.2403 18.1924 15.1201 18.3126C15 18.4327 14.837 18.5002 14.6671 18.5002H0.640626C0.470722 18.5002 0.307776 18.4327 0.187635 18.3126C0.0674943 18.1924 0 18.0295 0 17.8596V3.83642C0 3.66652 0.0674943 3.50357 0.187635 3.38343C0.307776 3.26329 0.470722 3.1958 0.640626 3.1958H1.40617V16.4518C1.40617 16.6217 1.47367 16.7847 1.59381 16.9048C1.71395 17.025 1.8769 17.0925 2.0468 17.0925L15.3078 17.0941Z"
        fill="#1E212D" />
    <path
        d="M17.3567 0.5H3.33496C3.16506 0.5 3.00211 0.567494 2.88197 0.687633C2.76183 0.807773 2.69434 0.970717 2.69434 1.14062V15.1622C2.69434 15.3321 2.76183 15.495 2.88197 15.6152C3.00211 15.7353 3.16506 15.8028 3.33496 15.8028H17.3567C17.5266 15.8028 17.6895 15.7353 17.8097 15.6152C17.9298 15.495 17.9973 15.3321 17.9973 15.1622V1.14062C17.9973 0.970717 17.9298 0.807773 17.8097 0.687633C17.6895 0.567494 17.5266 0.5 17.3567 0.5ZM13.854 12.297H6.84559C6.67569 12.297 6.51274 12.2295 6.3926 12.1094C6.27246 11.9893 6.20497 11.8263 6.20497 11.6564C6.20497 11.4865 6.27246 11.3236 6.3926 11.2034C6.51274 11.0833 6.67569 11.0158 6.84559 11.0158H13.8524C14.0224 11.0158 14.1853 11.0833 14.3054 11.2034C14.4256 11.3236 14.4931 11.4865 14.4931 11.6564C14.4931 11.8263 14.4256 11.9893 14.3054 12.1094C14.1853 12.2295 14.0224 12.297 13.8524 12.297H13.854ZM13.854 8.79283H6.84559C6.76147 8.79283 6.67816 8.77626 6.60044 8.74407C6.52271 8.71187 6.45209 8.66468 6.3926 8.6052C6.33312 8.54571 6.28593 8.47509 6.25373 8.39737C6.22154 8.31964 6.20497 8.23634 6.20497 8.15221C6.20497 8.06808 6.22154 7.98478 6.25373 7.90706C6.28593 7.82933 6.33312 7.75871 6.3926 7.69922C6.45209 7.63974 6.52271 7.59255 6.60044 7.56035C6.67816 7.52816 6.76147 7.51159 6.84559 7.51159H13.8524C13.9366 7.51159 14.0199 7.52816 14.0976 7.56035C14.1753 7.59255 14.2459 7.63974 14.3054 7.69922C14.3649 7.75871 14.4121 7.82933 14.4443 7.90706C14.4765 7.98478 14.4931 8.06808 14.4931 8.15221C14.4931 8.23634 14.4765 8.31964 14.4443 8.39737C14.4121 8.47509 14.3649 8.54571 14.3054 8.6052C14.2459 8.66468 14.1753 8.71187 14.0976 8.74407C14.0199 8.77626 13.9366 8.79283 13.8524 8.79283H13.854ZM13.854 5.28864H6.84559C6.67569 5.28864 6.51274 5.22114 6.3926 5.101C6.27246 4.98086 6.20497 4.81792 6.20497 4.64802C6.20497 4.47811 6.27246 4.31517 6.3926 4.19503C6.51274 4.07489 6.67569 4.0074 6.84559 4.0074H13.8524C14.0224 4.0074 14.1853 4.07489 14.3054 4.19503C14.4256 4.31517 14.4931 4.47811 14.4931 4.64802C14.4931 4.81792 14.4256 4.98086 14.3054 5.101C14.1853 5.22114 14.0224 5.28864 13.8524 5.28864H13.854Z"
        fill="#1E212D" />
</svg>